# xmcd
#
# Track frame offsets:
#	150
#	16341
#	32942
#	48097
#	63779
#	78499
#	92187
#	105325
#	123194
#	136321
#	152512
#	169113
#	184268
#	199950
#	214670
#	228358
#	241496
#	259365
#
# Disc length: 3633
#
# Revision: 1
# Processed by: cddbd v1.5.2PL0 Copyright (c) Steve Scherf et al.
# Submitted via: kJams Pro (development) 1.0patch45.4
#
DISCID=ee0e2f12
DTITLE=Various Artist - NSC 3009
DYEAR=1996
DGENRE=Country
TTITLE0=John Michael Montgomery - The Little Girl
TTITLE1=Dixie Chicks - Without You
TTITLE2=Lonestar - Tell Her
TTITLE3=Reba McEntire - We're So Good Together
TTITLE4=Tim McGraw - My Next Thirty Years
TTITLE5=Trace Adkins - I'm Gonna Love You Anyway
TTITLE6=Chris Cagle - My Love Goes On And On
TTITLE7=Jamie O'Neal - There Is No Arizona
TTITLE8=The Clark Family Experience - Meanwhile Back At The Ranch
TTITLE9=John Michael Montgomery - Vocals - The Little Girl
TTITLE10=Dixie Chicks - Vocals - Without You
TTITLE11=Lonestar - Vocals - Tell Her
TTITLE12=Reba McEntire - Vocals - We're So Good Together
TTITLE13=Tim McGraw - Vocals - Ny Next Thirty Years
TTITLE14=Trace Adkins - Vocals - I'm Gonna To Love You Anyway
TTITLE15=Chris Cagle - Vocals - My Love Goes On And On
TTITLE16=Jamie O'Neal - Vocals - There Is No Arizona
TTITLE17=The Clark Family Experience - Vocals - Meanwhile Back At The Ranch
EXTD=
EXTT0=
EXTT1=
EXTT2=
EXTT3=
EXTT4=
EXTT5=
EXTT6=
EXTT7=
EXTT8=
EXTT9=
EXTT10=
EXTT11=
EXTT12=
EXTT13=
EXTT14=
EXTT15=
EXTT16=
EXTT17=
PLAYORDER=
